#N canvas 900 247 601 426 10;
#X obj 156 372 mrpeach/udpsend;
#X obj 161 399 tgl 15 0 empty empty empty 17 7 0 10 -262144 -1 -1 1
1;
#X msg 198 342 disconnect;
#X msg 186 314 connect 127.0.0.1 5006;
#X obj 153 272 spigot;
#X obj 189 248 tgl 15 0 empty empty empty 17 7 0 10 -262144 -1 -1 0
1;
#X obj 87 96 metro 1;
#X obj 86 120 f;
#X obj 114 120 + 1;
#X obj 88 74 tgl 15 0 empty empty empty 17 7 0 10 -262144 -1 -1 0 1
;
#X obj 88 142 expr if($f1 > 60000 \, 0 \, $f1);
#X obj 89 168 expr if ($f1 == 60000 \, 1 \, 0);
#X obj 107 320 osc/packOSC;
#X obj 371 59 adc~;
#X obj 378 91 +~;
#X obj 378 113 env~ 4096;
#X floatatom 393 146 5 0 0 0 - - -, f 5;
#X obj 366 205 list append;
#X obj 357 161 t b;
#X obj 350 239 list;
#X obj 350 261 list trim;
#X obj 20 162 / 1000;
#X floatatom 20 184 5 0 0 0 - - -, f 5;
#X msg 88 266 /filter 20;
#X msg 169 71 0;
#X msg 355 181 /filter;
#X connect 0 0 1 0;
#X connect 2 0 0 0;
#X connect 3 0 0 0;
#X connect 4 0 12 0;
#X connect 5 0 4 1;
#X connect 6 0 7 0;
#X connect 6 0 19 0;
#X connect 7 0 10 0;
#X connect 8 0 7 1;
#X connect 9 0 6 0;
#X connect 10 0 8 0;
#X connect 10 0 11 0;
#X connect 10 0 21 0;
#X connect 11 0 5 0;
#X connect 12 0 0 0;
#X connect 13 0 14 0;
#X connect 13 1 14 1;
#X connect 14 0 15 0;
#X connect 15 0 16 0;
#X connect 15 0 18 0;
#X connect 16 0 17 1;
#X connect 17 0 19 1;
#X connect 18 0 25 0;
#X connect 19 0 20 0;
#X connect 20 0 4 0;
#X connect 21 0 22 0;
#X connect 23 0 12 0;
#X connect 24 0 7 1;
#X connect 24 0 7 0;
#X connect 25 0 17 0;
