#N canvas 362 79 976 797 10;
#X obj 262 493 mrpeach/udpsend;
#X obj 267 520 tgl 15 0 empty empty empty 17 7 0 10 -262144 -1 -1 0
1;
#X msg 304 463 disconnect;
#X msg 292 435 connect 127.0.0.1 5006;
#X obj 261 272 spigot;
#X obj 169 67 metro 1;
#X obj 170 91 f;
#X obj 196 91 + 1;
#X obj 170 45 tgl 15 0 empty empty empty 17 7 0 10 -262144 -1 -1 0
1;
#X obj 170 113 expr if($f1 > 60000 \, 0 \, $f1);
#X obj 171 139 expr if ($f1 == 60000 \, 1 \, 0);
#X obj 217 416 osc/packOSC;
#X obj 371 59 adc~;
#X obj 378 91 +~;
#X obj 378 113 env~ 4096;
#X floatatom 393 146 5 0 0 0 - - -, f 5;
#X obj 366 205 list append;
#X obj 357 161 t b;
#X obj 350 239 list;
#X obj 350 261 list trim;
#X floatatom 20 184 5 0 0 0 - - -, f 5;
#X msg 251 42 0;
#X obj 20 162 div 1000;
#X obj 9 201 expr if($f1 == 59 \, 1 \, 0);
#X obj 9 268 f;
#X obj 38 268 + 1;
#X floatatom 9 290 5 0 0 0 - - -, f 5;
#X obj 9 223 route 1;
#X obj 9 245 t b;
#X msg 89 271 /roadD 1.2;
#X text 85 232 /pipeA;
#X text 85 252 /laneB;
#X text 135 232 /pikeC;
#X text 135 252 /roadD;
#X floatatom 98 102 5 0 0 0 - - -, f 5;
#X msg 355 181 /roadD;
#X connect 0 0 1 0;
#X connect 2 0 0 0;
#X connect 3 0 0 0;
#X connect 4 0 11 0;
#X connect 5 0 6 0;
#X connect 5 0 18 0;
#X connect 6 0 9 0;
#X connect 6 0 34 0;
#X connect 7 0 6 1;
#X connect 8 0 5 0;
#X connect 9 0 7 0;
#X connect 9 0 10 0;
#X connect 9 0 22 0;
#X connect 10 0 4 1;
#X connect 11 0 0 0;
#X connect 12 0 13 0;
#X connect 12 1 13 1;
#X connect 13 0 14 0;
#X connect 14 0 15 0;
#X connect 14 0 17 0;
#X connect 15 0 16 1;
#X connect 16 0 18 1;
#X connect 17 0 35 0;
#X connect 18 0 19 0;
#X connect 19 0 4 0;
#X connect 21 0 6 1;
#X connect 21 0 6 0;
#X connect 22 0 20 0;
#X connect 22 0 23 0;
#X connect 23 0 27 0;
#X connect 24 0 25 0;
#X connect 24 0 26 0;
#X connect 25 0 24 1;
#X connect 27 0 28 0;
#X connect 28 0 24 0;
#X connect 29 0 11 0;
#X connect 35 0 16 0;
